<svg xmlns="http://www.w3.org/2000/svg" width="39.873" height="25" viewBox="0 0 39.873 25">
    <defs>
        <style>
            .cls-1{fill:#fff}
        </style>
    </defs>
    <g id="hitescard-icon">
        <path id="Trazado_33" d="M43.759 45.616c-4.556 1.3-2.974 6.58-2.277 8.982l1.068 3.646h9.2l-2.4-8.275c-.965-3.304-2.036-5.389-5.591-4.353z" class="cls-1" data-name="Trazado 33" transform="translate(-29.794 -33.244)"/>
        <path id="Trazado_34" d="M0 1.732v21.53a1.74 1.74 0 0 0 1.732 1.732h7.234L1.631 0A1.73 1.73 0 0 0 0 1.732z" class="cls-1" data-name="Trazado 34"/>
        <path id="Trazado_35" d="M52.971 0H20.23l3.988 13.522h.08a6.345 6.345 0 0 1 4.556-4.738c5.09-1.481 7.474 1.788 8.862 6.47l2.837 9.74h12.463a1.732 1.732 0 0 0 1.684-1.732V1.732A1.735 1.735 0 0 0 52.971 0zm-.08 15.482h-7.816v-5.446h7.816z" class="cls-1" data-name="Trazado 35" transform="translate(-14.83)"/>
    </g>
</svg>
