<svg xmlns="http://www.w3.org/2000/svg" width="15.821" height="24" viewBox="0 0 15.821 24">
    <path id="prefix__icono-mujer" d="M23.895 33.678a7.4 7.4 0 0 1-2.056-.244 27.548 27.548 0 0 0-6.419-.634h-.51a.532.532 0 0 1-.422-.207.5.5 0 0 1-.059-.466l4.186-11.256v-1.1a5.591 5.591 0 0 0-.74-2.122 3.809 3.809 0 0 1 0-3.461V10.19a.5.5 0 0 1 .5-.5h.91a.51.51 0 0 1 .5.5v3.557a3.964 3.964 0 0 1 2.515 1.236A4.082 4.082 0 0 1 25 13.77v-3.587a.5.5 0 0 1 .5-.5h.887a.5.5 0 0 1 .5.5v4.208a4.038 4.038 0 0 1-.074 3.261 7.211 7.211 0 0 0-.813 2.16v1.035L30.174 32.1a.488.488 0 0 1 0 .407.525.525 0 0 1-.311.251 26.808 26.808 0 0 1-5.968.92zM15.619 31.8a27.718 27.718 0 0 1 6.5.673 6.168 6.168 0 0 0 1.76.207 24.82 24.82 0 0 0 5.177-.74L25.2 21.446h-5.735zM25 20.448v-.178h-5.4v.192zm.1-1.191a9.614 9.614 0 0 1 .836-2.078A3.15 3.15 0 0 0 26 14.827a3.454 3.454 0 0 0-.74-.089 3.21 3.21 0 0 0-2.551 1.3.518.518 0 0 1-.385.185.532.532 0 0 1-.392-.192 3.121 3.121 0 0 0-2.448-1.316 2.507 2.507 0 0 0-.577.059l-.207.074a2.766 2.766 0 0 0 .089 2.337 7.943 7.943 0 0 1 .74 2.071z" transform="translate(-14.397 -9.68)" style="fill:#9a9a9a"/>
</svg>
