<svg xmlns="http://www.w3.org/2000/svg" width="20" height="22.374" viewBox="0 0 20 22.374">
    <defs>
        <style>
            .prefix__cls-1{fill:#9a9a9a}
        </style>
    </defs>
    <g id="prefix__icono-belleza" transform="translate(-14.642 -14.21)">
        <path id="prefix__Trazado_162" d="M22.442 36.583a6.119 6.119 0 0 1-3.872-1.358 3.6 3.6 0 0 1-.382-.363c-4.236-4.781-4.14-7.592-2.486-11.043a7.821 7.821 0 0 1 5.2-4.475 1.214 1.214 0 0 1 0-.268v-.526a2.046 2.046 0 0 1 1.698-2.007v-1.061a1.272 1.272 0 0 1 1.272-1.272h1.438a1.272 1.272 0 0 1 1.281 1.272v1.052a2.037 2.037 0 0 1 1.778 2.017v.526a2.343 2.343 0 0 1 0 .258 7.563 7.563 0 0 1 5.211 4.3c1.673 3.423 1.75 6.215-2.61 11.139a3.423 3.423 0 0 1-.373.354 6.215 6.215 0 0 1-3.882 1.4zm-5.918-12.324c-1.539 3.232-1.539 5.555 2.362 9.992a2.553 2.553 0 0 0 .277.258 5.173 5.173 0 0 0 3.289 1.147l4.236-.057a5.2 5.2 0 0 0 3.3-1.186 2.591 2.591 0 0 0 .277-.249c4.054-4.589 4.025-6.922 2.467-10.116-.1-.191-.191-.363-.3-.535a14.5 14.5 0 0 1-2.668.679 18.616 18.616 0 0 1-2.868.22 11.838 11.838 0 0 1-1.645-.076v4.972A5.125 5.125 0 0 1 23.675 33a.466.466 0 0 1-.66-.66 4.15 4.15 0 0 0 1.319-3.031V24.23l-.956-.163c-.535-.086-1.08-.182-1.645-.239a12.956 12.956 0 0 0-1.386-.067 14.1 14.1 0 0 0-3.825.5zm8.739-.851c.545.048 1.1.076 1.664.076a16.56 16.56 0 0 0 2.7-.21 13.883 13.883 0 0 0 2.295-.555 5.966 5.966 0 0 0-4.848-2.582h-1.811zm-4.934-.574a12.075 12.075 0 0 1 1.463.076c.593.057 1.157.153 1.7.249l.841.134v-3.155h-2.1a6.244 6.244 0 0 0-5.087 3.031 15.174 15.174 0 0 1 3.184-.335zm2.18-3.624h4.9v-.669a1.119 1.119 0 0 0-1.109-1.109h-3.38a1.109 1.109 0 0 0-1.109 1.109v.526a.727.727 0 0 0 0 .143h.7zm3.155-2.7v-1.028a.363.363 0 0 0-.354-.354h-1.462a.354.354 0 0 0-.344.354v1.033z" class="prefix__cls-1" data-name="Trazado 162"/>
        <path id="prefix__Trazado_163" d="M24.969 16.528a.679.679 0 1 1 .679-.679.679.679 0 0 1-.679.679z" class="prefix__cls-1" data-name="Trazado 163" transform="translate(-.423 -.042)"/>
    </g>
</svg>
