<svg xmlns="http://www.w3.org/2000/svg" width="25" height="12.986" viewBox="0 0 25 12.986">
    <path id="prefix__icono-deporte" d="M24.908 28.178a4.53 4.53 0 0 1-2.232-8.491l-.364-.819-4.294 3.682a2.032 2.032 0 0 1 .315 1.08 2.068 2.068 0 0 1-.315 1.086l.382.382h.382a.455.455 0 1 1 0 .91h-1.134a.461.461 0 0 1-.455-.455l.03-.115a1.971 1.971 0 0 1-.928.237 2.032 2.032 0 0 1-1.983-1.589h-.77a4.555 4.555 0 1 1-1.9-4.142l1.819-2.026-.441-1.148-1.158-.055a.455.455 0 1 1 .036-.91l2.6.127a.431.431 0 0 1 .315.146.461.461 0 0 1 .115.327.455.455 0 0 1-.467.431h-.449l.267.679 7.533.206-.4-.91a.77.77 0 0 1 .734-1.08h.334a2.529 2.529 0 0 0 1.11-.133.449.449 0 0 1 .443-.37.461.461 0 0 1 .455.455.752.752 0 0 1-.243.552c-.182.176-.564.412-1.728.412h-.158l1.152 2.687a4.536 4.536 0 1 1 1.4 8.849zm-1.868-7.63a3.584 3.584 0 1 0 .831-.37l1.449 3.293a.431.431 0 0 1 0 .346.461.461 0 0 1-.237.255.485.485 0 0 1-.182.036.461.461 0 0 1-.418-.273zm-14.01-.533a3.639 3.639 0 1 0 3.6 4.082h-3.7a.467.467 0 0 1-.418-.267.455.455 0 0 1 .079-.491l2.426-2.723a3.639 3.639 0 0 0-1.987-.601zm6.222 4.085a1.134 1.134 0 0 0 1.055.7 1.086 1.086 0 0 0 .412-.079l-.606-.606h-.849zm2.092-.042a1.086 1.086 0 0 0 .079-.412 1.128 1.128 0 0 0-.109-.479l-.461.418zm-1.735-.867l-.133-.328a1.086 1.086 0 0 0-.224.328zm-1.3 0a2.02 2.02 0 0 1 .807-1.213l-1.292-3.105-1.5 1.68a4.476 4.476 0 0 1 1.213 2.65h.77zm-1.68 0a3.639 3.639 0 0 0-.91-1.977L9.94 23.187zm3.784-.443l.212-.182a1.51 1.51 0 0 0-.309-.055zm-.1-1.146a2.062 2.062 0 0 1 1.086.321l3.845-3.3-6.592-.176.321.776a.437.437 0 0 1 .249-.3.485.485 0 0 1 .182-.036.449.449 0 0 1 .418.273l.679 1.589a.455.455 0 0 1 0 .346.461.461 0 0 1-.243.249.485.485 0 0 1-.182.036.455.455 0 0 1-.249-.073l.139.334a2.08 2.08 0 0 1 .342-.041z" transform="translate(-4.452 -15.23)" style="fill:#9a9a9a"/>
</svg>
