<svg xmlns="http://www.w3.org/2000/svg" width="20" height="23.402" viewBox="0 0 20 23.402">
    <defs>
        <style>
            .prefix__cls-1{fill:#9a9a9a}
        </style>
    </defs>
    <g id="prefix__icono-hogar" transform="translate(-12.059 -10.68)">
        <path id="prefix__Trazado_160" d="M28.66 34.067a.638.638 0 0 1-.508-.246.623.623 0 0 1-.1-.546.915.915 0 0 1 .892-.669 6.568 6.568 0 0 0 1.284-.2l.254-.069c.546-.138.654-.161.623-.708v-6.922a2.492 2.492 0 0 0-.354-1.638 6.3 6.3 0 0 1-1.361-1.953 9.428 9.428 0 0 1-.723-4.43 48.45 48.45 0 0 1 .631-5.668.408.408 0 0 1 .4-.338h4.46a.415.415 0 0 1 .408.331 51.179 51.179 0 0 1 .608 5.683 9.39 9.39 0 0 1-.769 4.422 6.56 6.56 0 0 1-1.361 1.953c-.169.177-.361.6-.369 1.638v6.906c0 .561.077.592.608.723l.269.077a6.567 6.567 0 0 0 1.284.2.923.923 0 0 1 .884.677.584.584 0 0 1-.1.538.646.646 0 0 1-.508.254zm4.96-.838l-.5-.131c-.477-.123-1.1-.277-1.207-1.115-.115.838-.769.992-1.215 1.107l-.246.069-.254.062zm-1.884-10a3.8 3.8 0 0 1 .185 1.031 4.1 4.1 0 0 1 .192-1.031zM30.06 11.518a47.419 47.419 0 0 0-.561 5.237 8.59 8.59 0 0 0 .646 4.038 5.5 5.5 0 0 0 .684 1.146 1.532 1.532 0 0 0 2.2.008 5.776 5.776 0 0 0 .684-1.146 8.46 8.46 0 0 0 .661-4.037 46.583 46.583 0 0 0-.546-5.237z" class="prefix__cls-1" data-name="Trazado 160" transform="translate(-3.688)"/>
        <path id="prefix__Trazado_161" d="M13.736 33.8a.677.677 0 0 1-.538-.269.577.577 0 0 1-.092-.546.977.977 0 0 1 .961-.692 9.4 9.4 0 0 0 1.538-.215 1.277 1.277 0 0 0 1.031-1.192v-6.21a2.123 2.123 0 0 0-1.354-2.069l-.338-.2a5.383 5.383 0 0 1-2.83-3.845c-.354-2.192 1.115-6.768 1.177-6.968a.408.408 0 0 1 .392-.285h7.69a.408.408 0 0 1 .385.285c.161.492 1.538 4.853 1.177 6.968a5.445 5.445 0 0 1-2.83 3.845c-1.215.646-1.723 1.1-1.723 2.246v6.214a1.277 1.277 0 0 0 1.038 1.192 9.152 9.152 0 0 0 1.538.215 1 1 0 0 1 .969.692.615.615 0 0 1-.092.546.677.677 0 0 1-.546.269zm6.029-.815a2.189 2.189 0 0 1-.577-.123 2.092 2.092 0 0 1-1.638-1.976v-6.21a2.746 2.746 0 0 1 .438-1.607h-.938a2.815 2.815 0 0 1 .431 1.607v6.214a2.084 2.084 0 0 1-1.623 1.976c-.177.046-.354.085-.569.123zm-5.783-20.852c-.292.961-1.338 4.614-1.061 6.3a4.614 4.614 0 0 0 2.407 3.276l.123.069a3.653 3.653 0 0 0 2.061.5 3.484 3.484 0 0 0 2.038-.485l.154-.085a4.568 4.568 0 0 0 2.407-3.276c.277-1.7-.769-5.337-1.054-6.3z" class="prefix__cls-1" data-name="Trazado 161" transform="translate(0 -.145)"/>
    </g>
</svg>
