<svg xmlns="http://www.w3.org/2000/svg" width="20" height="17.59" viewBox="0 0 20 17.59">
    <defs>
        <style>
            .prefix__cls-1{fill:#9a9a9a}
        </style>
    </defs>
    <g id="prefix__icono-infantil" transform="translate(-7.43 -9.59)">
        <path id="prefix__Trazado_170" d="M24 10.689h-.359a1.39 1.39 0 0 0-1.356-1.1 1.276 1.276 0 0 0-.387.057 1.242 1.242 0 0 0-.382-.057 1.384 1.384 0 0 0-1.384 1.333 2.148 2.148 0 0 0-1.2 1.9V16.7a.507.507 0 0 1-.513.5H7.829a.387.387 0 0 0-.4.387.41.41 0 0 0 .353.393A10.389 10.389 0 0 1 14.118 23a1.811 1.811 0 0 1 .125.672v3.481h3.2v-.416a1.23 1.23 0 0 0-1.043-1.214v-1.14h1.322v2.8h3.139v-.416a1.23 1.23 0 0 0-1.037-1.219v-1.142h.6a2.626 2.626 0 0 0 2.375-3.748 4.272 4.272 0 0 0 .08-.6.684.684 0 0 0 1.191-.547v-.723a.615.615 0 0 0-.615-.615H23.2v-.142a.9.9 0 0 0-.3-.672V16.09h1.88a2.125 2.125 0 0 0 2.073-1.635h.57v-.285A3.458 3.458 0 0 0 24 10.689zm-6.681 13.062h-1.5v2.33h.381a.666.666 0 0 1 .649.513h-2.037V23.4a.478.478 0 0 1 .478-.484h.188a.5.5 0 0 0 .422-.444v-.752a2.062 2.062 0 1 1 2.318 2.034zm4.158-9.94a.467.467 0 0 1-.467-.461.154.154 0 0 0-.154-.108.159.159 0 0 0-.154.159.78.78 0 0 0 .78.763H25.3l.478.57a.131.131 0 0 0 .205 0l.313-.37a1.549 1.549 0 0 1-1.5 1.139h-2.459v2.159l.137.085a.347.347 0 0 1 .159.291v.33a.353.353 0 0 0 .353.353h.461a.04.04 0 0 1 .046.046v.741c0 .131-.234.131-.234 0v-.165a.347.347 0 0 0-.347-.353h-.347v-.205a.615.615 0 0 0-.615-.615h-.239v-.142a.911.911 0 1 0-1.823 0v.786a.746.746 0 0 0 .746.746h.57a.675.675 0 0 0 1.116.473 4.518 4.518 0 0 1-.08.57v.1l.046.091a2.056 2.056 0 0 1-1.823 3.006h-.672a.524.524 0 0 0-.518.524v1.76h.37a.666.666 0 0 1 .649.513H18.27v-2.276a2.626 2.626 0 1 0-2.939-2.6v.632h-.046a1.048 1.048 0 0 0-.735.3A11.826 11.826 0 0 0 9.1 17.8h9.331a1.077 1.077 0 0 0 1.071-1.071v-3.875a1.589 1.589 0 0 1 1.03-1.454l.205-.08-.028-.216V11a.832.832 0 0 1 1.1-.763l.1.04.1-.04a.832.832 0 0 1 1.094.723v.285H24a2.888 2.888 0 0 1 2.848 2.569zm-.051 5.178h-.792a.177.177 0 0 1-.177-.177v-.786a.342.342 0 1 1 .684 0v.342a.353.353 0 0 0 .353.353h.461a.04.04 0 0 1 .046.046v.741c0 .131-.234.131-.234 0v-.165a.347.347 0 0 0-.341-.354z" class="prefix__cls-1" data-name="Trazado 170"/>
        <path id="prefix__Trazado_171" d="M32.751 18.13l.478-.57H32.09l.478.57a.125.125 0 0 0 .182 0z" class="prefix__cls-1" data-name="Trazado 171" transform="translate(-10.613 -3.43)"/>
        <path id="prefix__Trazado_172" d="M34.991 18.13l.478-.57H34.33l.478.57a.125.125 0 0 0 .182 0z" class="prefix__cls-1" data-name="Trazado 172" transform="translate(-11.577 -3.43)"/>
        <path id="prefix__Trazado_173" d="M37.241 18.13l.478-.57H36.58l.478.57a.131.131 0 0 0 .183 0z" class="prefix__cls-1" data-name="Trazado 173" transform="translate(-12.545 -3.43)"/>
        <path id="prefix__Trazado_174" d="M38.829 13.68c-.2 0-.359.114-.359.262s.159.262.359.262.359-.12.359-.262-.16-.262-.359-.262z" class="prefix__cls-1" data-name="Trazado 174" transform="translate(-13.358 -1.76)"/>
        <path id="prefix__Trazado_175" d="M31.73 11a.57.57 0 1 0 .57.57.57.57 0 0 0-.57-.57z" class="prefix__cls-1" data-name="Trazado 175" transform="translate(-10.213 -.607)"/>
    </g>
</svg>
