<svg id="Capa_1" data-name="Capa 1" xmlns="http://www.w3.org/2000/svg" width="26.39" height="26.89" viewBox="0 0 26.39 26.89"><defs><style>.cls-1{fill:#9a9a9a;}</style></defs><path class="cls-1" d="M5.37,26.87a.61.61,0,0,1-.61-.61h0V12.17l-.91.36h-.2a.62.62,0,0,1-.56-.36L.05,5.3a.62.62,0,0,1,.22-.76A63.45,63.45,0,0,1,6.46.73,9.53,9.53,0,0,1,10.18,0h.24A.62.62,0,0,1,11,.52s.38,2.32,2,2.32S15.24.57,15.27.47A.62.62,0,0,1,15.84,0H16a10.65,10.65,0,0,1,5,1.34c2.25,1.27,4.87,3.08,5.16,3.28a.63.63,0,0,1,.22.75l-3,6.77a.6.6,0,0,1-.56.37h-.14l-1.44-.33v14.1a.61.61,0,0,1-.61.61h0ZM20,25.65V7.53a.63.63,0,0,1,.7-.54.62.62,0,0,1,.53.54v3.39l1.22.28L25,5.36c-.9-.62-2.9-2-4.66-3a9.35,9.35,0,0,0-4-1.16C16,2.15,15,4,13,4a3.45,3.45,0,0,1-3.12-2.8,8.26,8.26,0,0,0-2.94.61A61.26,61.26,0,0,0,1.33,5.26L4,11.14l.78-.27V7.53a.61.61,0,0,1,.61-.61h0A.61.61,0,0,1,6,7.53H6V25.65Z"/></svg>