<svg xmlns="http://www.w3.org/2000/svg" width="11.675" height="22" viewBox="0 0 11.675 22">
    <path id="prefix__icono-lineablanca" d="M18.34 31.63a1.166 1.166 0 0 1-1.21-1.115v-19.77a1.166 1.166 0 0 1 1.21-1.115h9.247a1.173 1.173 0 0 1 1.213 1.115v19.77a1.173 1.173 0 0 1-1.217 1.115zm-.205-1.115a.2.2 0 0 0 .205.189h9.247a.215.215 0 0 0 .15-.053.182.182 0 0 0 .063-.136V23.08h-8.243v2.156a1.173 1.173 0 0 1-1.217 1.122h-.205zm.205-5.056a.215.215 0 0 0 .15-.053.182.182 0 0 0 .063-.136v-2.156h-.418v2.345zm9.46-3.271V10.745a.182.182 0 0 0-.063-.136.215.215 0 0 0-.15-.053H18.34a.2.2 0 0 0-.205.189v8.165h.205a1.167 1.167 0 0 1 1.217 1.108v2.163zm-9.247 0v-2.17a.182.182 0 0 0-.063-.136.215.215 0 0 0-.15-.053h-.205v2.352zm4.4 8.111a.522.522 0 0 1-.357-.132.442.442 0 0 1-.149-.327v-.24a.527.527 0 0 1-.205.041.486.486 0 0 1-.421-.351.444.444 0 0 1 .209-.487l.433-.2v-.676a.455.455 0 0 1 .232-.45.543.543 0 0 1 .541 0 .455.455 0 0 1 .232.45v.673l.433.2a.468.468 0 0 1 .257.264.439.439 0 0 1 0 .358.505.505 0 0 1-.447.25.567.567 0 0 1-.213-.041v.237a.445.445 0 0 1-.162.326.525.525 0 0 1-.366.12zm1.76-1.23a.568.568 0 0 1-.337-.155.457.457 0 0 1-.125-.338v-.446l-.66-.345a.471.471 0 0 1-.227-.284.422.422 0 0 1 .044-.351.538.538 0 0 1 .689-.169l.653.351.4-.25a.593.593 0 0 1 .279-.074.5.5 0 0 1 .47.323.446.446 0 0 1-.176.515l.22.115a.451.451 0 0 1 .227.519.5.5 0 0 1-.476.346.572.572 0 0 1-.257-.061l-.22-.115a.485.485 0 0 1-.5.419zm-3.564 0a.482.482 0 0 1-.447-.4l-.22.115a.524.524 0 0 1-.249.061.5.5 0 0 1-.489-.34.451.451 0 0 1 .225-.525l.227-.115a.46.46 0 0 1-.205-.284.468.468 0 0 1 .073-.351.512.512 0 0 1 .418-.2.546.546 0 0 1 .279.074l.4.25.655-.354a.572.572 0 0 1 .257-.061.5.5 0 0 1 .476.346.451.451 0 0 1-.227.519l-.653.345v.451a.439.439 0 0 1-.132.338.554.554 0 0 1-.345.155zm2.728-2.21a.524.524 0 0 1-.44-.23.454.454 0 0 1 .191-.635l.653-.345V25.2a.457.457 0 0 1 .125-.338.578.578 0 0 1 .33-.115.494.494 0 0 1 .521.419l.22-.115a.572.572 0 0 1 .257-.061.5.5 0 0 1 .476.346.451.451 0 0 1-.227.519l-.22.115a.446.446 0 0 1 .176.515.5.5 0 0 1-.47.323.593.593 0 0 1-.279-.074l-.4-.25-.653.351a.528.528 0 0 1-.242.041zm-1.848 0a.524.524 0 0 1-.249-.061l-.66-.351-.4.25a.546.546 0 0 1-.279.074.5.5 0 0 1-.418-.21.443.443 0 0 1-.073-.345.46.46 0 0 1 .205-.284l-.183-.095a.451.451 0 0 1-.226-.522.5.5 0 0 1 .482-.343.524.524 0 0 1 .249.061l.22.115a.477.477 0 0 1 .491-.419.572.572 0 0 1 .381.155.439.439 0 0 1 .132.338v.446l.653.345a.451.451 0 0 1 .227.519.5.5 0 0 1-.476.346zm.924-.487a.487.487 0 0 1-.506-.466v-.676l-.433-.2a.449.449 0 0 1-.265-.52.493.493 0 0 1 .492-.352.527.527 0 0 1 .205.041v-.237a.513.513 0 0 1 1 0v.238a.567.567 0 0 1 .213-.041.505.505 0 0 1 .447.25.439.439 0 0 1 0 .358.468.468 0 0 1-.257.264l-.433.2v.676a.48.48 0 0 1-.455.487z" transform="translate(-17.13 -9.63)" style="fill:#9a9a9a"/>
</svg>
