<svg xmlns="http://www.w3.org/2000/svg" width="19.68" height="12.94" viewBox="0 0 19.68 12.94"><defs><style>.cls-1{fill:#9a9a9a;}</style></defs><g id="Capa_2" data-name="Capa 2"><g id="Capa_1-2" data-name="Capa 1"><path class="cls-1" d="M9.84,12.81a11.06,11.06,0,0,1-4.93-1.17l-1-.5a.26.26,0,0,1-.14-.22V5.12h.5v5.65l.86.43a10.48,10.48,0,0,0,9.42,0l.86-.43V5.12h.49v5.8a.25.25,0,0,1-.13.22l-1,.5A11.06,11.06,0,0,1,9.84,12.81Z"/><path class="cls-1" d="M9.84,12.94a11,11,0,0,1-5-1.19l-1-.5a.37.37,0,0,1-.2-.33V5h.74v5.7l.8.4a10.29,10.29,0,0,0,9.3,0l.8-.4V5H16v5.93a.36.36,0,0,1-.21.33l-1,.5A11,11,0,0,1,9.84,12.94ZM3.9,5.24v5.68A.11.11,0,0,0,4,11l1,.5a10.8,10.8,0,0,0,9.74,0l1-.5a.14.14,0,0,0,.07-.11V5.24h-.24v5.6l-.94.47a10.57,10.57,0,0,1-9.52,0l-.94-.47V5.24Z"/><path class="cls-1" d="M2.07,8.07H1.58V4.57a.25.25,0,0,1,.23-.25l7.45-.66,0,.49-7.23.64Z"/><path class="cls-1" d="M2.2,8.2H1.46V4.57A.36.36,0,0,1,1.8,4.2l7.57-.67.06.73L2.2,4.91ZM1.7,8H2V4.68h.11L9.17,4l0-.25-7.32.65a.13.13,0,0,0-.12.13Z"/><path class="cls-1" d="M13.74,10.82l-.2-.46L14.3,10v-3h.49V10.2a.24.24,0,0,1-.15.22Z"/><path class="cls-1" d="M13.68,11l-.3-.68.79-.35v-3h.74V10.2a.36.36,0,0,1-.22.34Zm0-.55.09.22.79-.34a.12.12,0,0,0,.08-.11v-3h-.25v2.93Z"/><path class="cls-1" d="M9.84,4.78a1,1,0,0,1-1.05-.85,1,1,0,0,1,1.05-.85,1,1,0,0,1,1.05.85A1,1,0,0,1,9.84,4.78Zm0-1.21c-.3,0-.56.17-.56.36s.26.35.56.35.56-.16.56-.35S10.14,3.57,9.84,3.57Z"/><path class="cls-1" d="M9.84,4.9a1.1,1.1,0,0,1-1.18-1A1.1,1.1,0,0,1,9.84,3a1.1,1.1,0,0,1,1.18,1A1.1,1.1,0,0,1,9.84,4.9Zm0-1.7a.85.85,0,0,0-.93.73.85.85,0,0,0,.93.72.85.85,0,0,0,.93-.72A.85.85,0,0,0,9.84,3.2Zm0,1.21c-.37,0-.68-.22-.68-.48s.31-.48.68-.48.68.22.68.48S10.21,4.41,9.84,4.41Zm0-.72c-.24,0-.44.13-.44.24s.2.23.44.23.44-.13.44-.23S10.08,3.69,9.84,3.69Z"/><path class="cls-1" d="M2.82,10h-2a.22.22,0,0,1-.19-.1.23.23,0,0,1,0-.21L1,8.2a.83.83,0,0,1,.81-.62.84.84,0,0,1,.81.62l.42,1.52a.23.23,0,0,1,0,.21A.23.23,0,0,1,2.82,10ZM1.16,9.54H2.5L2.16,8.33a.35.35,0,0,0-.33-.26.36.36,0,0,0-.34.26Z"/><path class="cls-1" d="M2.82,10.16h-2A.38.38,0,0,1,.54,10a.37.37,0,0,1-.06-.32L.9,8.16a1,1,0,0,1,1.86,0l.42,1.53a.37.37,0,0,1-.06.32A.38.38,0,0,1,2.82,10.16Zm-1-2.46a.72.72,0,0,0-.69.53L.72,9.75a.09.09,0,0,0,0,.11.12.12,0,0,0,.09.05h2a.12.12,0,0,0,.1-.05.14.14,0,0,0,0-.11L2.52,8.23A.73.73,0,0,0,1.83,7.7Zm.83,2H1L1.38,8.3A.46.46,0,0,1,1.83,8a.47.47,0,0,1,.45.35ZM1.32,9.41h1L2,8.36a.22.22,0,0,0-.21-.16.24.24,0,0,0-.22.16Z"/><path class="cls-1" d="M9.84,7.73H9.75L.28,4.16a.26.26,0,0,1-.16-.23A.24.24,0,0,1,.28,3.7L9.75.14a.28.28,0,0,1,.18,0L19.39,3.7a.23.23,0,0,1,.16.23.25.25,0,0,1-.16.23L9.93,7.72ZM1.07,3.93,9.84,7.22l8.77-3.29L9.84.63Z"/><path class="cls-1" d="M9.84,7.85a.3.3,0,0,1-.13,0L.24,4.27a.37.37,0,0,1,0-.69L9.71,0A.39.39,0,0,1,10,0l9.47,3.56a.37.37,0,0,1,0,.69L10,7.83A.32.32,0,0,1,9.84,7.85Zm0-7.6H9.79L.33,3.81a.13.13,0,0,0-.08.12A.12.12,0,0,0,.33,4L9.8,7.6a.14.14,0,0,0,.09,0L19.35,4a.12.12,0,0,0,.08-.11.13.13,0,0,0-.08-.12L9.88.25Zm0,7.1h0L.72,3.93,9.84.5l0,0L19,3.93ZM1.42,3.93,9.84,7.09l8.41-3.16L9.84.77Z"/></g></g></svg>