<svg id="Capa_1" data-name="Capa 1" xmlns="http://www.w3.org/2000/svg" width="17.48" height="20" viewBox="0 0 17.48 20"><defs><style>.cls-1{fill:#9a9a9a;}</style></defs><path class="cls-1" d="M8.74,20A5.45,5.45,0,0,1,3.3,14.56,5.5,5.5,0,0,1,4,11.84c-1.9-.3-4-.9-4-2.05C0,8.24,3.82,7.7,5.75,7.52a5.39,5.39,0,0,0-.48-.83A4.14,4.14,0,0,1,5,2.35,4.25,4.25,0,0,1,8.64,0h.1a4.22,4.22,0,0,1,3.78,2.33,4.17,4.17,0,0,1-.34,4.41,4.32,4.32,0,0,0-.46.78c1.93.18,5.76.72,5.76,2.27,0,1.15-2.13,1.75-4,2.05A5.44,5.44,0,0,1,8.74,20ZM5,12a4.53,4.53,0,0,0-.8,2.59A4.59,4.59,0,1,0,12.53,12l-.71.08a3.91,3.91,0,0,1,.89,2.51,4,4,0,1,1-7-2.51Zm1.83.16a3.12,3.12,0,1,0,5.08,2.43,3.08,3.08,0,0,0-1.16-2.43c-.64,0-1.3.06-2,.06S7.42,12.17,6.78,12.13ZM6.05,8.35C2.42,8.65.85,9.44.85,9.79s2.68,1.55,7.89,1.55,7.89-1.09,7.89-1.55-1.58-1.14-5.21-1.44a5.37,5.37,0,0,0-.17,1.35.43.43,0,0,1-.25.39,5.85,5.85,0,0,1-2.26.46,5.78,5.78,0,0,1-2.26-.46.43.43,0,0,1-.26-.39A4.8,4.8,0,0,0,6.05,8.35Zm1,1.06a4.93,4.93,0,0,0,1.67.29,5,5,0,0,0,1.67-.29,5.78,5.78,0,0,1,1.08-3.17,3.34,3.34,0,0,0,.28-3.53,3.39,3.39,0,0,0-3-1.86V.65l-.08.2A3.39,3.39,0,0,0,5.71,2.74,3.32,3.32,0,0,0,6,6.2,5.89,5.89,0,0,1,7.07,9.41Z"/></svg>