<svg xmlns="http://www.w3.org/2000/svg" width="18.88" height="16.52" viewBox="0 0 18.88 16.52"><defs><style>.cls-1{fill:#9a9a9a;}</style></defs><g id="Capa_2" data-name="Capa 2"><g id="Capa_1-2" data-name="Capa 1"><path class="cls-1" d="M14.47,16.52a4.38,4.38,0,0,1-1.8-.36,4.22,4.22,0,0,1-1.38-1,4.32,4.32,0,0,1-.89-1.44A5,5,0,0,1,10.09,12a5.19,5.19,0,0,1,.31-1.8,4.53,4.53,0,0,1,.89-1.44,4.24,4.24,0,0,1,1.39-1,4.71,4.71,0,0,1,3.61,0,4.17,4.17,0,0,1,1.38,1,4.46,4.46,0,0,1,.89,1.44,5.06,5.06,0,0,1,0,3.54,4.47,4.47,0,0,1-.9,1.46,4.55,4.55,0,0,1-1.4,1A4.4,4.4,0,0,1,14.47,16.52Zm0-8.13a3.53,3.53,0,0,0-1.4.28A3.3,3.3,0,0,0,12,9.43a3.39,3.39,0,0,0-.69,1.12,3.78,3.78,0,0,0-.25,1.4,3.69,3.69,0,0,0,.25,1.41A3.34,3.34,0,0,0,12,14.49a3.37,3.37,0,0,0,1.05.76,3.6,3.6,0,0,0,2.77,0,3.24,3.24,0,0,0,1.08-.76,3.2,3.2,0,0,0,.69-1.12A3.85,3.85,0,0,0,17.88,12a4.06,4.06,0,0,0-.25-1.44,3.57,3.57,0,0,0-.69-1.12,3.06,3.06,0,0,0-1.05-.75A3.64,3.64,0,0,0,14.49,8.39ZM5.07,16.31H2.16A.51.51,0,0,1,1.71,16a.53.53,0,0,1,.05-.53L13.41.41a.5.5,0,0,1,.39-.2h2.91a.49.49,0,0,1,.45.28.49.49,0,0,1-.05.53L5.47,16.11A.49.49,0,0,1,5.07,16.31Zm-1.89-1H4.83L15.7,1.21H14.05Zm11.31-1.16a1.62,1.62,0,0,1-1.3-.68,2.44,2.44,0,0,1-.47-1.5,2.55,2.55,0,0,1,.43-1.53,1.65,1.65,0,0,1,2.64,0A2.46,2.46,0,0,1,16.24,12a2.45,2.45,0,0,1-.44,1.52A1.54,1.54,0,0,1,14.49,14.15Zm0-3.38A.56.56,0,0,0,14,11a1.53,1.53,0,0,0-.24.91,1.43,1.43,0,0,0,.27.93.58.58,0,0,0,.5.29.55.55,0,0,0,.5-.27,1.44,1.44,0,0,0,.25-.89A1.54,1.54,0,0,0,15,11,.6.6,0,0,0,14.47,10.77ZM4.38,9.13a4.42,4.42,0,0,1-1.8-.36,4,4,0,0,1-1.38-1A4.53,4.53,0,0,1,.31,6.35a5.24,5.24,0,0,1,0-3.55A4.42,4.42,0,0,1,1.2,1.36a4.1,4.1,0,0,1,1.39-1,4.64,4.64,0,0,1,3.62,0,4.12,4.12,0,0,1,1.37,1A4.53,4.53,0,0,1,8.47,2.8a4.74,4.74,0,0,1,.31,1.73,4.89,4.89,0,0,1-.31,1.8,4.38,4.38,0,0,1-.9,1.44,4.24,4.24,0,0,1-1.4,1A4.44,4.44,0,0,1,4.38,9.13ZM4.4,1A3.37,3.37,0,0,0,3,1.28,3.13,3.13,0,0,0,1.94,2a3.34,3.34,0,0,0-.69,1.13A3.77,3.77,0,0,0,1,4.55,3.85,3.85,0,0,0,1.25,6a3.29,3.29,0,0,0,.69,1.12A3,3,0,0,0,3,7.86a3.69,3.69,0,0,0,2.77,0,3.51,3.51,0,0,0,1.08-.76A3.59,3.59,0,0,0,7.54,6a4,4,0,0,0,.24-1.4,3.93,3.93,0,0,0-.24-1.41A3.69,3.69,0,0,0,6.85,2,3.28,3.28,0,0,0,4.4,1Zm0,5.76a1.64,1.64,0,0,1-1.3-.67,2.44,2.44,0,0,1-.47-1.52,2.51,2.51,0,0,1,.44-1.52,1.62,1.62,0,0,1,2.63,0,2.46,2.46,0,0,1,.45,1.49,2.48,2.48,0,0,1-.44,1.53A1.57,1.57,0,0,1,4.4,6.76Zm0-3.39a.57.57,0,0,0-.5.27,1.44,1.44,0,0,0-.25.89,1.48,1.48,0,0,0,.26.94.62.62,0,0,0,.51.29.55.55,0,0,0,.5-.27,1.46,1.46,0,0,0,.25-.89,1.49,1.49,0,0,0-.26-.95A.6.6,0,0,0,4.38,3.37Z"/></g></g></svg>