<svg xmlns="http://www.w3.org/2000/svg" width="22" height="22.197" viewBox="0 0 22 22.197">
    <defs>
        <style>
            .prefix__cls-1{fill:#9a9a9a}
        </style>
    </defs>
    <g id="prefix__icono-zapatilla" transform="translate(-12.066 -12.667)">
        <path id="prefix__Trazado_164" d="M14.529 34.864a2.611 2.611 0 0 1 0-5.213h1.8A40.671 40.671 0 0 0 19.1 18.546a1.486 1.486 0 0 1 .621-1.066 1.511 1.511 0 0 1 1.226-.235 1.528 1.528 0 0 1 1.153 1.678v.042a3.358 3.358 0 0 0 2.048-1.074 4.3 4.3 0 0 0 .63-3.265 1.7 1.7 0 0 1 2.569-1.7 12.869 12.869 0 0 1 4.625 4.734 1.6 1.6 0 0 1 .571-.109 1.553 1.553 0 0 1 1.083 2.636L19.691 34.125a2.46 2.46 0 0 1-1.771.739zm-1.561-2.124a1.628 1.628 0 0 0 1.561 1.192h3.358a1.561 1.561 0 0 0 1.091-.445l13.96-13.968a.594.594 0 0 0-.839-.839L18.667 32.111a2 2 0 0 1-1.419.588zm4.3-.965a1.032 1.032 0 0 0 .73-.3l13.2-13.2a12.256 12.256 0 0 0-4.34-4.483.705.705 0 0 0-.386-.109.714.714 0 0 0-.52.218.747.747 0 0 0-.21.638 5.179 5.179 0 0 1-.842 3.981 4.457 4.457 0 0 1-2.963 1.469 62.689 62.689 0 0 1-1.561 7.11.487.487 0 0 1-.462.353h-.134a.478.478 0 0 1-.336-.6 62.237 62.237 0 0 0 1.679-8.042.554.554 0 0 0-.411-.6h-.126a.537.537 0 0 0-.319.1.512.512 0 0 0-.227.369 41.343 41.343 0 0 1-2.686 10.971h.346a.487.487 0 0 1 0 .974h-3.171a1.629 1.629 0 0 0-1.561 1.15z" class="prefix__cls-1" data-name="Trazado 164"/>
        <path id="prefix__Trazado_165" d="M21.128 21.3l-1.049-.134a.47.47 0 0 1-.319-.176.487.487 0 0 1 .378-.789l1.108.134a.5.5 0 0 1 .327.185.529.529 0 0 1 .1.353.5.5 0 0 1-.487.428z" class="prefix__cls-1" data-name="Trazado 165" transform="translate(-1.218 -1.21)"/>
        <path id="prefix__Trazado_166" d="M20.716 23.848l-1.049-.2a.481.481 0 1 1 .092-.957h.118l1.041.193a.487.487 0 0 1-.092.965z" class="prefix__cls-1" data-name="Trazado 166" transform="translate(-1.151 -1.609)"/>
        <path id="prefix__Trazado_167" d="M20.172 26.382l-1.033-.243a.47.47 0 0 1-.353-.579.478.478 0 0 1 .47-.369h.109l1.033.243a.487.487 0 0 1-.109.957z" class="prefix__cls-1" data-name="Trazado 167" transform="translate(-1.077 -2.011)"/>
        <path id="prefix__Trazado_168" d="M19.6 28.934a.344.344 0 0 1-.134 0l-1.016-.277a.478.478 0 1 1 .126-.949.327.327 0 0 1 .126 0l1.024.277a.487.487 0 0 1-.126.949z" class="prefix__cls-1" data-name="Trazado 168" transform="translate(-.958 -2.414)"/>
        <path id="prefix__Trazado_169" d="M18.776 31.492a.487.487 0 0 1-.159 0l-1-.353a.483.483 0 0 1 .159-.94.478.478 0 0 1 .151 0l1.007.353a.47.47 0 0 1 .294.613.478.478 0 0 1-.452.327z" class="prefix__cls-1" data-name="Trazado 169" transform="translate(-.839 -2.814)"/>
    </g>
</svg>
