<svg xmlns="http://www.w3.org/2000/svg" width="20" height="18.262" viewBox="0 0 20 18.262">
    <path id="prefix__icono-muebles" d="M29.627 33.662a.93.93 0 0 1-.912-.93v-1.346H18.463v1.347a.93.93 0 0 1-.93.93h-.756a.93.93 0 0 1-.93-.93v-1.4a2.832 2.832 0 0 1-2.268-2.763v-5.7a2.45 2.45 0 0 1 2.268-2.441v-1.46a3.571 3.571 0 0 1 3.571-3.569h8.314a3.579 3.579 0 0 1 3.588 3.571v1.494a2.45 2.45 0 0 1 2.259 2.407v5.665a2.832 2.832 0 0 1-2.259 2.8v1.4a.93.93 0 0 1-.93.93zm.582-1.1v-1.176H29.8v1.173zm-12.85 0v-1.176h-.408v1.173zm13.4-2.268a1.738 1.738 0 0 0 1.738-1.738v-5.684a1.338 1.338 0 1 0-2.676 0v7.385zm-2.059 0v-1.176H18.463v1.173zM16.021 21.6a1.338 1.338 0 0 0-1.338 1.268v5.665a1.738 1.738 0 0 0 1.738 1.738h.964v-7.4a1.338 1.338 0 0 0-1.364-1.3zm12.693 6.42v-1.673a.964.964 0 0 0-.964-.956h-8.332a.956.956 0 0 0-.956.956v1.738zm-.964-3.779a1.963 1.963 0 0 1 .964.243v-1.612a2.441 2.441 0 0 1 1.512-2.259v-1.642A2.476 2.476 0 0 0 27.75 16.5h-8.332a2.467 2.467 0 0 0-2.467 2.467v1.677a2.459 2.459 0 0 1 1.512 2.224v1.581a1.955 1.955 0 0 1 .956-.243z" transform="translate(-13.58 -15.4)" style="fill:#9a9a9a"/>
</svg>
