<svg xmlns="http://www.w3.org/2000/svg" width="30" height="16.781" viewBox="0 0 30 16.781">
    <path id="prefix__icono-tecno" d="M9.146 32.511a2.227 2.227 0 0 1-2.226-2.218v-.825a.594.594 0 0 1 .577-.577h1.9V17.132a1.4 1.4 0 0 1 1.394-1.4h22.261a1.41 1.41 0 0 1 1.4 1.4v11.759h1.888a.618.618 0 0 1 .412.165.61.61 0 0 1 .165.412v.825a2.227 2.227 0 0 1-2.217 2.218zm-1.072-2.218a1.072 1.072 0 0 0 1.072 1.064h25.515a1.064 1.064 0 0 0 1.064-1.064v-.247H23.99a1.394 1.394 0 0 1-1.262.825h-1.649a1.394 1.394 0 0 1-1.27-.825H8.074zm25.184-1.4V17.132a.239.239 0 0 0-.247-.247H10.788a.247.247 0 0 0-.247.247v11.759z" transform="translate(-6.92 -15.73)" style="fill:#9a9a9a"/>
</svg>
