<svg xmlns="http://www.w3.org/2000/svg" width="20" height="16.801" viewBox="0 0 20 16.801">
    <path id="prefix__icono-calzado" d="M23.747 26.988a1.18 1.18 0 0 1-.567-.142.692.692 0 0 1-.352-.6V21.81c0-.493-.1-.6-.108-.607s-.34 0-1.373 1.39l-.261.352c-.567.771-1.18 1.577-1.8 2.269l-.261.284c-1.015 1.134-1.5 1.514-4.254 1.514-1.56 0-7.374-.369-7.374-2.167 0-1.577 1.378-1.963 2.717-2.343a5.723 5.723 0 0 0 1.974-.953 1.52 1.52 0 0 1 .862-.391h.085a6.652 6.652 0 0 0 3.585-.805 18.688 18.688 0 0 0 2.541-3.511c.482-.766.987-1.56 1.486-2.269.6-.879 1.055-1.577 1.418-2.133 1.157-1.781 1.435-2.229 2.121-2.229.828 0 3.21 1.758 3.21 5.1a16.143 16.143 0 0 1-.9 3.908 49.915 49.915 0 0 0-1.7 7.1.675.675 0 0 1-.346.5 1.4 1.4 0 0 1-.703.169zM22.732 20.5a.76.76 0 0 1 .221.04c.567.187.567 1 .567 1.271v4.436a.726.726 0 0 0 .221.034.669.669 0 0 0 .346-.068 48.48 48.48 0 0 1 1.7-7.181 15.944 15.944 0 0 0 .862-3.7c0-3.08-2.155-4.407-2.5-4.407s-.522.357-1.52 1.872c-.369.567-.828 1.259-1.429 2.138-.493.726-.993 1.509-1.475 2.269a17.568 17.568 0 0 1-2.717 3.7 7.148 7.148 0 0 1-4 .942h-.085a1.214 1.214 0 0 0-.448.255 6.358 6.358 0 0 1-2.175 1.036c-1.531.431-2.2.72-2.2 1.662 0 .681 3.551 1.458 6.665 1.458 2.575 0 2.864-.323 3.727-1.276l.267-.295c.567-.641 1.18-1.429 1.753-2.189l.261-.352c.858-1.124 1.465-1.645 1.959-1.645z" transform="translate(-7.4 -10.21)" style="fill:#9a9a9a"/>
</svg>
