<svg xmlns="http://www.w3.org/2000/svg" width="13.001" height="22" viewBox="0 0 13.001 22">
    <path id="prefix__icono-smartphones" d="M36.56 8H26.8a1.624 1.624 0 0 0-1.62 1.621v18.758A1.624 1.624 0 0 0 26.8 30h9.76a1.624 1.624 0 0 0 1.621-1.621V9.621A1.624 1.624 0 0 0 36.56 8M30.4 9.4h2.569a.385.385 0 0 1 0 .77H30.4a.385.385 0 0 1 0-.77m1.28 19.482a1.048 1.048 0 1 1 1.048-1.048 1.048 1.048 0 0 1-1.048 1.048m5.293-2.635H26.411V10.795h10.563z" transform="translate(-25.18 -8)" style="fill:#9a9a9a"/>
</svg>
