<svg xmlns="http://www.w3.org/2000/svg" width="173.246" height="70" viewBox="0 0 173.246 70">
    <defs>
        <style>
            .cls-1{fill:#ffa423}.cls-2{fill:#fff}
        </style>
    </defs>
    <g id="Grupo_2" data-name="Grupo 2" transform="translate(-605.288 -309.638)">
        <path id="Trazado_6" d="M655.244 323.435a6.681 6.681 0 1 1 6.7 6.665 6.678 6.678 0 0 1-6.7-6.665" class="cls-1" data-name="Trazado 6" transform="translate(-3.37 -.479)"/>
        <path id="Rectángulo_6" d="M0 0h8.714v44.474H0z" class="cls-2" data-name="Rectángulo 6" transform="rotate(-.168 114202.395 -222955.274)"/>
        <path id="Trazado_7" d="M751.576 358.765v-1.332c-.039-13.2-6.71-23.62-20.859-23.578-14.335.042-21.616 10.319-21.576 23.992.038 13.105 8.331 23.329 21.906 23.288a23.109 23.109 0 0 0 20.564-12.207l-7.218-4.063c-3.214 5.321-6.721 8.653-13.269 8.672-8.166.024-13.314-7.08-13.43-14.673zm-33.435-6.357c1.023-6.364 5.951-11.122 12.593-11.142 6.838-.02 11.219 4.43 12.281 11.069z" class="cls-2" data-name="Trazado 7" transform="translate(-7.005 -1.634)"/>
        <path id="Trazado_8" d="M785.439 341.408a13.243 13.243 0 0 0-12.194-7.763 12.994 12.994 0 0 0-13.092 12.975c.018 6.082 3.643 8.546 8.6 11.193l8.38 4.447c2 1.323 3.151 2.463 3.158 4.841.011 3.8-3.125 6.284-6.74 6.295-4.084.012-6.282-2.355-8.1-5.678l-7.314 3.351c2.391 6.27 8.968 9.957 15.433 9.938 8.28-.024 15.3-6.32 15.272-14.787-.021-7.038-5.075-10.255-10.307-12.615s-10.381-4.061-10.392-7.958a4.615 4.615 0 0 1 4.647-4.394 6.6 6.6 0 0 1 5.72 3.888z" class="cls-2" data-name="Trazado 8" transform="translate(-10.31 -1.619)"/>
        <path id="Trazado_9" d="M704.235 373.944l-.916 6.068c-.24.033-.847.064-1.807.1-.928.034-1.746.051-2.435.054q-10.611.031-16.053-4.013-5.441-4.092-5.467-12.548c-.011-3.529.219-46.082.219-46.082l7.769-.023.042 14.085 18.522-.054.023 7.956-18.522.054c0 .672-.1 20.126-.089 22.8q.018 6.219 3.651 8.968 3.62 2.7 11.179 2.689l2.225-.007a58.166 58.166 0 0 1 1.657-.052" class="cls-2" data-name="Trazado 9" transform="translate(-4.875 -.53)"/>
        <path id="Trazado_10" d="M605.288 309.663l.2 68.857 8.551-.025-.06-20.412c-.016-5.551-.052-17.756 10.956-17.787 8.732-.026 9.8 5.095 9.823 12.7l.075 25.442 8.539-.025-.078-26.483c-.032-10.833-3.279-19.272-15.813-19.235-5.418.016-10.722 2.594-13.373 7.351h-.183l-.09-30.4z" class="cls-2" data-name="Trazado 10"/>
    </g>
</svg>
