<svg id="Capa_1" data-name="Capa 1" xmlns="http://www.w3.org/2000/svg" xmlns:xlink="http://www.w3.org/1999/xlink" width="130.3" height="30" viewBox="0 0 130.3 30"><defs><style>.cls-1{fill:none;}.cls-2{fill:gray;}.cls-3{clip-path:url(#clip-path);}.cls-4{fill:#fff;}</style><clipPath id="clip-path"><rect class="cls-1" width="30" height="30"/></clipPath></defs><path class="cls-2" d="M130.3,21.23h-2.38l-.07-1a19.76,19.76,0,0,1-2.33,1,6.15,6.15,0,0,1-6.13-1.3,6.32,6.32,0,0,1-2-6.77A6.54,6.54,0,0,1,127.92,10a7.19,7.19,0,0,1,2.38,4.18ZM127.77,15a4.05,4.05,0,0,0-4.09-4,4.09,4.09,0,1,0,4.09,4Z"/><path class="cls-2" d="M53.11,21.32H50.72v-.85c0-2.24,0-4.48,0-6.73a2.59,2.59,0,0,0-2.65-2.83,2.65,2.65,0,0,0-2.72,2.87c0,2.5,0,5,0,7.53H42.93V13.68a2.61,2.61,0,0,0-1.43-2.47,2.69,2.69,0,0,0-2.93.25,2.5,2.5,0,0,0-1,2.19v7.66H35.12c0-.24,0-.5,0-.77,0-2.24,0-4.48,0-6.72A5.09,5.09,0,0,1,38,9a4.89,4.89,0,0,1,5.15.32A7.84,7.84,0,0,1,44,10a17.41,17.41,0,0,1,2.94-1.4,5,5,0,0,1,6.25,4.72c.1,2.59,0,5.19,0,7.78A1.22,1.22,0,0,1,53.11,21.32Z"/><path class="cls-2" d="M98.21,15a6.58,6.58,0,1,1,6.55,6.59A6.62,6.62,0,0,1,98.21,15Zm10.64,0a4,4,0,0,0-4-4.07,4,4,0,0,0-4.11,4,4.06,4.06,0,0,0,4.11,4.13A4,4,0,0,0,108.85,15Z"/><path class="cls-2" d="M54.82,14.88a6.58,6.58,0,1,1,6.4,6.66A6.62,6.62,0,0,1,54.82,14.88ZM65.47,15a4,4,0,0,0-4-4.12,4.08,4.08,0,1,0,4,4.12Z"/><path class="cls-2" d="M76.17,15A6.58,6.58,0,1,1,89.32,15,6.58,6.58,0,0,1,76.17,15Zm6.56-4A4.07,4.07,0,0,0,78.65,15a4.11,4.11,0,0,0,8.21,0A4.06,4.06,0,0,0,82.73,10.91Z"/><path class="cls-2" d="M75.21,10.89H72.1v4.85c0,2.4.67,3.14,3.12,3.38v2.35a5,5,0,0,1-5.59-4.79c-.11-3.75,0-7.51,0-11.26a.87.87,0,0,1,.08-.25h2.38V8.36h3.14Z"/><path class="cls-2" d="M115.43,21.26h-2.37V5.17h2.37Z"/><path class="cls-2" d="M97.24,10.91c-.46,0-.86,0-1.25,0a2.62,2.62,0,0,0-2.55,2.8q0,3.36,0,6.72v.89H91c0-.25,0-.51,0-.78,0-2.14.08-4.28,0-6.42a5.35,5.35,0,0,1,6.3-5.69Z"/><g class="cls-3"><path class="cls-2" d="M24.05,22.5a21.46,21.46,0,0,0-1.89-5.18,3.39,3.39,0,0,0-2.92-1.9c-.92,0-1.71.53-2.72,1.93a24.61,24.61,0,0,0-1.52,3,24.61,24.61,0,0,0-1.52-3c-1-1.4-1.8-1.91-2.72-1.93a3.42,3.42,0,0,0-2.93,1.9A21.94,21.94,0,0,0,5.94,22.5H4.88L10.63,3.76,15,18.42l0,0,0,0L19.38,3.76,25.12,22.5ZM15,0A15,15,0,1,0,30,15,15,15,0,0,0,15,0"/></g><path class="cls-4" d="M24.05,22.5a21.46,21.46,0,0,0-1.89-5.18,3.39,3.39,0,0,0-2.92-1.9c-.92,0-1.71.53-2.72,1.93a24.61,24.61,0,0,0-1.52,3,24.61,24.61,0,0,0-1.52-3c-1-1.4-1.8-1.91-2.72-1.93a3.42,3.42,0,0,0-2.93,1.9A21.94,21.94,0,0,0,5.94,22.5H4.88L10.63,3.76,15,18.42l0,0,0,0L19.38,3.76,25.12,22.5Z"/></svg>