<svg xmlns="http://www.w3.org/2000/svg" width="28.536" height="25" viewBox="0 0 28.536 25">
    <defs>
        <style>
            .cls-1{fill:#fff}
        </style>
    </defs>
    <g id="phonesell-icon" transform="translate(-232.4 -24)">
        <g id="phone-icon" transform="translate(232.4 24)">
            <path id="Trazado_12" d="M837.573-429.016c-1.814 0-7.237-1.677-12.421-6.86-4.843-4.841-7.118-10.638-6.84-12.794.265-2.044 1.759-4.617 3.712-5.209a2.889 2.889 0 0 1 .835-.137c1.229 0 1.791 1 2.606 2.632l.275.548c1 1.952 1.942 3.791 1.169 4.565a5.768 5.768 0 0 1-1.065.8l-.635.386.33.666a18.12 18.12 0 0 0 3.474 4.679 18.166 18.166 0 0 0 4.676 3.475l.666.331.386-.636a5.79 5.79 0 0 1 .8-1.068 1.086 1.086 0 0 1 .8-.288 10.835 10.835 0 0 1 3.761 1.456l.547.276c1.908.952 3.049 1.627 2.5 3.442-.591 1.952-3.165 3.445-5.211 3.71a2.9 2.9 0 0 1-.365.026z" class="cls-1" data-name="Trazado 12" transform="translate(-818.29 454.016)"/>
            <path id="Trazado_13" d="M890.178-445h-10.032a1.243 1.243 0 0 0-1.246 1.241v7.537a1.249 1.249 0 0 0 1.243 1.254h10.035a1.251 1.251 0 0 0 1.257-1.246v-7.532a1.251 1.251 0 0 0-1.249-1.254zm0 8.778h-10.032v-3.762h10.032zm0-6.27h-10.032v-1.254h10.032z" class="cls-1" data-name="Trazado 13" transform="translate(-862.899 447.38)"/>
        </g>
    </g>
</svg>
