<svg id="Capa_1" data-name="Capa 1" xmlns="http://www.w3.org/2000/svg" width="39.59" height="48.48" viewBox="0 0 39.59 48.48"><defs><style>.cls-1{fill:#0f6faf;}.cls-2{fill:#fff;}.cls-3{fill:#231f20;opacity:0.07;}.cls-4{fill:#f6a22c;}.cls-5{fill:#f6a22b;}</style></defs><path class="cls-1" d="M42.33,35.71A26,26,0,0,1,25.61,49.15l-.42.09h0l-.38-.08A26,26,0,0,1,8.05,35.71c-3.73-7.6-2.49-24-2.34-25.85l.11-1.24L25.16.77h0L44.57,8.62l.1,1.24C44.82,11.7,46.06,28.11,42.33,35.71Z" transform="translate(-5.4 -0.76)"/><path class="cls-1" d="M42.66,10,25.19,2.94,7.72,10S6.26,27.48,9.86,34.82A24.11,24.11,0,0,0,25.19,47.18,24.08,24.08,0,0,0,40.52,34.82C44.12,27.48,42.66,10,42.66,10Z" transform="translate(-5.4 -0.76)"/><path class="cls-2" d="M43.11,10l0-.28L25.19,2.45l0,0L7.3,9.71l0,.28c-.06.72-1.43,17.66,2.18,25,5,10.24,15.53,12.57,15.64,12.6h.09l.1,0c.1,0,10.62-2.36,15.64-12.6C44.54,27.65,43.17,10.71,43.11,10ZM25.19,46.72h0C24,46.42,14.8,43.88,10.27,34.63,7,28,8,12.58,8.15,10.34l17-6.91h0l17,6.92c.17,2.24,1.15,17.64-2.11,24.29C35.55,44,26.23,46.46,25.19,46.72Z" transform="translate(-5.4 -0.76)"/><path class="cls-3" d="M42.33,35.71A26,26,0,0,1,25.61,49.15l-.42.09h0V.77h0L44.57,8.62l.1,1.24C44.82,11.7,46.06,28.11,42.33,35.71Z" transform="translate(-5.4 -0.76)"/><path class="cls-4" d="M18.65,19.29a1.08,1.08,0,1,1,1.08,1.09,1.08,1.08,0,0,1-1.08-1.09h0" transform="translate(-5.4 -0.76)"/><path class="cls-2" d="M11.15,17.13v11.1h1.38V24.94c0-.89,0-2.86,1.77-2.86,1.41,0,1.58.83,1.58,2.05v4.1h1.37V24c0-1.75-.51-3.11-2.53-3.11A2.46,2.46,0,0,0,12.56,22h0v-4.9Z" transform="translate(-5.4 -0.76)"/><rect class="cls-2" x="13.63" y="20.3" width="1.41" height="7.16"/><path class="cls-2" d="M28.18,23.81a2,2,0,0,1,2-1.79,1.92,1.92,0,0,1,2,1.79Zm5.39,1.05v-.21c0-2.12-1.07-3.81-3.36-3.81s-3.49,1.65-3.49,3.86a3.48,3.48,0,0,0,3.52,3.76,3.74,3.74,0,0,0,3.32-2l-1.16-.66a2.34,2.34,0,0,1-2.14,1.39,2.26,2.26,0,0,1-2.16-2.37Z" transform="translate(-5.4 -0.76)"/><path class="cls-2" d="M38.5,22.06a2.11,2.11,0,0,0-2-1.25,2.08,2.08,0,0,0-2.11,2.07h0c0,1,.58,1.38,1.38,1.81l1.34.72a.85.85,0,0,1,.51.78,1,1,0,0,1-1,1h0a1.4,1.4,0,0,1-1.3-.92l-1.18.54a2.64,2.64,0,0,0,2.48,1.61A2.42,2.42,0,0,0,39,26.09h0v0c0-1.12-.82-1.65-1.66-2s-1.67-.66-1.67-1.29a.75.75,0,0,1,.75-.71,1.07,1.07,0,0,1,.92.63Z" transform="translate(-5.4 -0.76)"/><path class="cls-2" d="M26.28,27.45l-.15,1h-.69a4.3,4.3,0,0,1-2.58-.65,2.36,2.36,0,0,1-.87-2c0-.57.05-7.42.05-7.42h1.25v2.27h3v1.28h-3c0,.11,0,3.24,0,3.67A1.73,1.73,0,0,0,23.85,27a3,3,0,0,0,1.8.44h.64" transform="translate(-5.4 -0.76)"/><path class="cls-2" d="M10.74,12h.94c.78,0,1.46.22,1.46,1s-.54,1-1.49,1h-.22v1.14h-.69Zm.95,1.48c.58,0,.75-.13.75-.43s-.24-.44-.77-.44h-.24v.87Z" transform="translate(-5.4 -0.76)"/><path class="cls-2" d="M13.54,12h1c.72,0,1.37.2,1.37,1a.88.88,0,0,1-.65.88l.9,1.34h-.8l-.81-1.25h-.31v1.25h-.7Zm1.05,1.4c.4,0,.62-.1.62-.39s-.18-.4-.7-.4h-.27v.79Z" transform="translate(-5.4 -0.76)"/><path class="cls-2" d="M16.27,13.56a1.66,1.66,0,1,1,1.66,1.64A1.61,1.61,0,0,1,16.27,13.56Zm2.62,0a1,1,0,1,0-1,1A1,1,0,0,0,18.89,13.56Z" transform="translate(-5.4 -0.76)"/><path class="cls-2" d="M20.72,12.58h-1V12h2.75v.61h-1v2.57h-.7Z" transform="translate(-5.4 -0.76)"/><path class="cls-2" d="M22.8,12h2v.61H23.5v.62h1.09v.58H23.5v.76h1.31v.61h-2Z" transform="translate(-5.4 -0.76)"/><path class="cls-2" d="M26.86,11.92a2.07,2.07,0,0,1,.88.2v.71a1.59,1.59,0,0,0-.88-.28,1,1,0,1,0,0,2,1.61,1.61,0,0,0,.9-.29V15a2.11,2.11,0,0,1-.93.21,1.64,1.64,0,1,1,0-3.28Z" transform="translate(-5.4 -0.76)"/><path class="cls-2" d="M29.85,11.92a2.07,2.07,0,0,1,.88.2v.71a1.59,1.59,0,0,0-.88-.28,1,1,0,1,0,0,2,1.61,1.61,0,0,0,.9-.29V15a2.11,2.11,0,0,1-.93.21,1.64,1.64,0,1,1,0-3.28Z" transform="translate(-5.4 -0.76)"/><path class="cls-2" d="M31.24,12h.7v3.18h-.7Z" transform="translate(-5.4 -0.76)"/><path class="cls-2" d="M32.38,13.56A1.66,1.66,0,1,1,34,15.2,1.61,1.61,0,0,1,32.38,13.56Zm2.62,0a1,1,0,1,0-1,1A1,1,0,0,0,35,13.56Zm-.86-1.9h-.46l.37-.72h.6Z" transform="translate(-5.4 -0.76)"/><path class="cls-2" d="M37.41,13.87l-.6-.82h0c0,.31,0,.61,0,.92v1.18h-.67V12h.66l1,1.28c.21.28.4.55.6.83h0c0-.3,0-.61,0-.92V12H39v3.18h-.66Z" transform="translate(-5.4 -0.76)"/><path class="cls-5" d="M22.66,41.39c1.33.78,1.8.23,1.8.23l11.27-5.44a1.22,1.22,0,0,0,.47-1.54A1.14,1.14,0,0,0,35,34l-7.54,2.36a2.62,2.62,0,0,1-.51,1.85,1.52,1.52,0,0,1-1.49.32l-7.7-4.08c-.24-.59.27-.54.27-.54L25.68,38a.93.93,0,0,0,1.13-.59,1.39,1.39,0,0,0-.27-1.5L18.4,31.51c-2.74-.09-8.77,1.58-8.77,1.58a20,20,0,0,0,3.64,6.12l4-.81Z" transform="translate(-5.4 -0.76)"/></svg>