<svg id="eMIFXxhpbZU1" xmlns="http://www.w3.org/2000/svg" xmlns:xlink="http://www.w3.org/1999/xlink" viewBox="0 0 40 40" shape-rendering="geometricPrecision" text-rendering="geometricPrecision">
<style><![CDATA[
#eMIFXxhpbZU30_ts {animation: eMIFXxhpbZU30_ts__ts 1000ms linear infinite normal forwards}@keyframes eMIFXxhpbZU30_ts__ts { 0% {transform: translate(30.838747px,15.174998px) scale(1,1);animation-timing-function: cubic-bezier(0.25,1,0.25,1)} 50% {transform: translate(30.838747px,15.174998px) scale(1.5,1.5);animation-timing-function: cubic-bezier(0.25,1,0.25,1)} 100% {transform: translate(30.838747px,15.174998px) scale(1,1)}}
]]></style>
<defs><linearGradient id="eMIFXxhpbZU35-fill" x1="34.67" y1="12.28" x2="24.42" y2="18.2" spreadMethod="pad" gradientUnits="userSpaceOnUse" gradientTransform="translate(0 0)"><stop id="eMIFXxhpbZU35-fill-0" offset="0%" stop-color="#17191c"/><stop id="eMIFXxhpbZU35-fill-1" offset="34%" stop-color="#171a1e"/><stop id="eMIFXxhpbZU35-fill-2" offset="53%" stop-color="#192026"/><stop id="eMIFXxhpbZU35-fill-3" offset="68%" stop-color="#1d2934"/><stop id="eMIFXxhpbZU35-fill-4" offset="81%" stop-color="#223747"/><stop id="eMIFXxhpbZU35-fill-5" offset="93%" stop-color="#284860"/><stop id="eMIFXxhpbZU35-fill-6" offset="100%" stop-color="#2e5674"/></linearGradient><linearGradient id="eMIFXxhpbZU47-fill" x1="0.03" y1="0.11" x2="1.61" y2="1.02" spreadMethod="pad" gradientUnits="userSpaceOnUse" gradientTransform="translate(0 0)"><stop id="eMIFXxhpbZU47-fill-0" offset="0%" stop-color="#cfcfcf"/><stop id="eMIFXxhpbZU47-fill-1" offset="20%" stop-color="#e8e8e8"/><stop id="eMIFXxhpbZU47-fill-2" offset="44%" stop-color="#d3d3d3"/><stop id="eMIFXxhpbZU47-fill-3" offset="53%" stop-color="#d7d7d7"/><stop id="eMIFXxhpbZU47-fill-4" offset="63%" stop-color="#e5e5e5"/><stop id="eMIFXxhpbZU47-fill-5" offset="74%" stop-color="#fbfbfb"/><stop id="eMIFXxhpbZU47-fill-6" offset="75%" stop-color="#fff"/><stop id="eMIFXxhpbZU47-fill-7" offset="100%" stop-color="#d3d3d3"/></linearGradient></defs><g><g><g><path d="M40,20c0,11.05-8.95,20-20,20s-20-8.95-20-20s8.95-20,20-20s20,8.95,20,20" fill="#00247a"/></g></g><g><g><path d="M14.18,7.24v15.57h-4.32v-9.61L7.8,14.95L5,11.64l5.2-4.4h3.97Z" fill="#ff0079"/><path d="M22.82,22.8c-2.15,0-3.98-.76-5.49-2.29-1.53-1.52-2.29-3.35-2.29-5.5s.76-3.98,2.29-5.5c1.52-1.53,3.35-2.29,5.49-2.29s3.98.76,5.5,2.29c1.53,1.52,2.29,3.35,2.29,5.5s-.76,3.98-2.29,5.5c-1.52,1.53-3.35,2.29-5.5,2.29Zm0-11.24c-.95,0-1.77.34-2.45,1.01-.68.68-1.01,1.5-1.01,2.45s.34,1.77,1.01,2.45c.68.68,1.5,1.01,2.45,1.01s1.77-.34,2.45-1.01c.68-.68,1.01-1.5,1.01-2.45s-.34-1.77-1.01-2.45c-.68-.67-1.5-1.01-2.45-1.01Z" fill="#ff0079"/></g></g><g><g><g><path d="M8.97,32.34v-.86h.84v.76c0,.19.07.29.22.29s.21-.11.21-.35v-.09c0-.34-.02-.47-.28-.75l-.49-.55c-.36-.38-.46-.76-.46-1.22v-.2c0-.61.37-.95.97-.95h.18c.67,0,.92.31.92.94v.65h-.83v-.6c0-.16-.03-.25-.19-.25s-.19.09-.19.26v.11c0,.22.05.38.27.62l.49.55c.43.48.52.83.52,1.23v.22c0,.72-.34,1.19-1.04,1.19h-.17c-.65,0-.98-.35-.98-.99h-.01Z" fill="#fff"/><path d="M12.31,33.27h-.85v-4.79h.85v4.79Z" fill="#fff"/><path d="M13.49,28.48l.58,2.45v-2.45h.76v4.79h-.73l-.66-2.62v2.62h-.76v-4.79h.81Z" fill="#fff"/><path d="M16.86,33.27h-.85v-4.79h.85v4.79Z" fill="#fff"/><path d="M18.04,28.48l.58,2.45v-2.45h.76v4.79h-.73l-.66-2.62v2.62h-.76v-4.79h.81Z" fill="#fff"/><path d="M20.28,29.33h-.61v-.84h2.08v.84h-.61v3.95h-.85v-3.95Z" fill="#fff"/><path d="M23.83,28.48v.84h-.93v1.04h.74v.86h-.74v1.18h.98v.86h-1.84v-4.79h1.79Z" fill="#fff"/><path d="M25.03,33.27h-.85v-4.79h1.35c.52,0,.79.29.79.8v.76c0,.38-.22.58-.38.65.14.05.37.2.37.56v1.63c0,.2.04.29.07.36v.03h-.85c-.04-.05-.08-.16-.08-.37v-1.4c0-.22-.05-.28-.22-.28h-.18v2.05v0Zm0-2.84h.17c.17,0,.24-.07.24-.29v-.65c0-.2-.04-.27-.21-.27h-.19v1.21v0Z" fill="#fff"/><path d="M28.44,28.48v.84h-.93v1.04h.74v.86h-.74v1.18h.98v.86h-1.84v-4.79h1.79Zm-.95-.92h.68l-.29.74h-.67l.28-.74Z" fill="#fff"/><path d="M28.71,32.34v-.86h.84v.76c0,.19.07.29.22.29s.21-.11.21-.35v-.09c0-.34-.02-.47-.28-.75l-.49-.55c-.36-.38-.46-.76-.46-1.22v-.2c0-.61.37-.95.97-.95h.18c.67,0,.92.31.92.94v.65h-.83v-.6c0-.16-.03-.25-.19-.25s-.19.09-.19.26v.11c0,.22.05.38.27.62l.49.55c.43.48.52.83.52,1.23v.22c0,.72-.34,1.19-1.04,1.19h-.17c-.65,0-.98-.35-.98-.99c0,0-.01,0-.01,0Z" fill="#fff"/></g><g><path d="M9.61,25.09c.29-.25.71-.37,1.25-.37.5,0,.89.1,1.18.3s.45.49.49.88h-1.02c-.02-.1-.09-.19-.2-.27s-.26-.11-.46-.11c-.24,0-.41.06-.52.18s-.17.28-.17.47.06.36.17.47.28.18.52.18c.19,0,.35-.04.46-.11s.18-.17.2-.27h1.02c-.04.38-.2.68-.49.88-.28.2-.68.31-1.18.31-.54,0-.95-.12-1.25-.37-.29-.25-.44-.61-.44-1.09s.15-.84.44-1.08v0Z" fill="#fff"/><path d="M16.29,26.21c0,.47-.14.83-.41,1.06s-.7.36-1.28.36-1.01-.12-1.28-.36-.4-.59-.4-1.07v-1.41h.96v1.38c0,.19.05.35.16.47s.29.19.56.19.46-.06.56-.19c.11-.12.16-.28.16-.47v-1.38h.96v1.41v0Z" fill="#fff"/><path d="M17.5,27.46c-.27-.11-.47-.28-.61-.5s-.21-.48-.21-.79.07-.57.21-.79.35-.38.61-.49.59-.17.97-.17.7.06.97.17.47.28.62.49.21.48.21.78-.07.57-.21.79-.35.38-.62.5c-.27.11-.59.17-.97.17s-.7-.06-.97-.17v0Zm1.78-1.28c0-.2-.06-.36-.18-.47s-.33-.18-.62-.18-.5.06-.62.18-.18.28-.18.47c0,.44.27.65.8.65s.8-.22.8-.65Z" fill="#fff"/><path d="M23.83,24.8v.81h-1.17v1.96h-.96v-1.96h-1.17v-.81h3.29Z" fill="#fff"/><path d="M27.54,27.56h-1.02l-.23-.48h-1.52l-.23.48h-1.02l1.32-2.76h1.36l1.32,2.76h.01Zm-2-2.1l-.44.93h.87l-.44-.93Z" fill="#fff"/><path d="M28.57,26.65c0,.19.25.29.75.29.19,0,.33,0,.43-.02s.17-.04.2-.07.05-.06.05-.11-.02-.09-.05-.12c-.04-.02-.1-.04-.21-.06s-.28-.03-.53-.05c-.37-.03-.68-.08-.91-.15s-.4-.17-.52-.29-.17-.29-.17-.5c0-.28.14-.49.42-.64s.66-.22,1.14-.22c.54,0,.96.08,1.25.24s.45.39.47.7h-1c0-.09-.06-.15-.17-.19s-.29-.06-.55-.06c-.22,0-.37.01-.45.04s-.12.07-.12.12c0,.04.02.08.05.1.04.02.1.05.21.06.1.02.27.04.49.06.4.03.71.08.93.12.22.05.39.13.52.25s.19.3.19.53c0,.33-.14.57-.41.71-.28.14-.68.21-1.22.21-.57,0-1.01-.08-1.31-.23s-.46-.4-.47-.75h1-.01Z" fill="#fff"/></g></g></g></g><g id="eMIFXxhpbZU30_ts" transform="translate(30.838747,15.174998) scale(1,1)"><g transform="translate(-28.892498,-15.174998)"><g><g clip-path="url(#eMIFXxhpbZU48)"><g><g><path d="M33.14,11.5h-6.94c-.84,0-1.55.55-1.78,1.32-.13.43-.37.82-.69,1.13l-.72.69c-.3.29-.3.77,0,1.06l.73.71c.31.3.55.68.67,1.1.23.77.94,1.34,1.79,1.34h6.94c1.03,0,1.86-.83,1.86-1.86v-3.63c0-1.03-.83-1.86-1.86-1.86v0Z" fill="url(#eMIFXxhpbZU35-fill)" stroke="#fff" stroke-width="0.5" stroke-miterlimit="10"/><path d="M25.29,12.84l1.72,5.39h.81l-.29-1.03c-.17-.52-.53-1.66.43-1.96.76-.24,1,.21,1.23.91l.69,2.08h.81l-.79-2.41c-.32-1.01-.86-1.71-1.94-1.36-.47.15-.85.54-.94,1.05h-.02c0,0-.86-2.67-.86-2.67h-.85Z" fill="#fff"/><g><rect width="2.3" height="0.74" rx="0.35" ry="0.35" transform="translate(31.58 17.5)" fill="#13a538"/><path d="M31.77,18.12l.04.02v0c0,0,0-.06.02-.09.06-.15.24-.19.3-.2.05-.02.12-.03.19-.12-.07.07-.13.08-.19.09-.05.01-.24.03-.31.18-.02.04-.03.07-.03.1c0,0,0,0,0,0s-.05-.06-.01-.17c0,0,0,0,0-.01l-.03.09.04.11v0Z" fill="none"/></g><g><path d="M31.66,12.44c0-.07.05-.12.12-.12s.12.05.12.12-.05.12-.12.12-.12-.05-.12-.12" fill="#ff9e18"/><path d="M30.8,12.19v1.27h.16v-.38c0-.1,0-.33.2-.33.16,0,.18.09.18.23v.47h.16v-.49c0-.2-.06-.36-.29-.36-.1,0-.2.05-.24.13v0-.56h-.16Z" fill="#fff"/><rect width="0.16" height="0.82" rx="0" ry="0" transform="translate(31.7 12.64)" fill="#fff"/><path d="M33.35,13.08v-.03c0-.24-.12-.44-.38-.44s-.4.19-.4.44.15.43.4.43c.16,0,.3-.08.38-.22l-.13-.07c-.06.1-.12.16-.24.16-.15,0-.24-.13-.24-.27h.62Zm-.61-.12c.02-.12.11-.21.23-.21s.21.08.22.21h-.46Z" fill="#fff"/><path d="M33.91,12.76c-.04-.09-.13-.14-.22-.14-.13,0-.24.11-.24.24c0,.11.07.16.16.21l.15.08c0,0,.06.04.06.09c0,.07-.06.12-.13.12s-.12-.04-.15-.11l-.13.06c.04.12.16.18.28.18.15,0,.28-.12.28-.27c0-.13-.09-.19-.19-.23s-.19-.08-.19-.15c0-.04.04-.08.09-.08s.09.03.11.07l.13-.07v0Z" fill="#fff"/><path d="M32.52,13.37l-.02.11h-.08c-.13,0-.23-.03-.3-.07-.07-.05-.1-.13-.1-.23c0-.06,0-.85,0-.85h.14v.26h.34v.15h-.34v.42c0,.08.02.13.07.17.04.03.11.05.21.05h.07" fill="#fff"/></g><rect width="1.65" height="1.13" rx="0.23" ry="0.23" transform="translate(32.26 14.01)" fill="url(#eMIFXxhpbZU47-fill)"/></g></g><clipPath id="eMIFXxhpbZU48"><path d="M33.14,11.5h-6.94c-.84,0-1.55.55-1.78,1.32-.13.43-.37.82-.69,1.13l-.72.69c-.3.29-.3.77,0,1.06l.73.71c.31.3.55.68.67,1.1.23.77.94,1.34,1.79,1.34h6.94c1.03,0,1.86-.83,1.86-1.86v-3.63c0-1.03-.83-1.86-1.86-1.86v0Z" fill="none"/></clipPath></g></g></g></g></svg>
