<svg xmlns="http://www.w3.org/2000/svg" xmlns:xlink="http://www.w3.org/1999/xlink" width="76.9" height="76.9" viewBox="0 0 76.9 76.9"><defs><style>.cls-1{fill:url(#linear-gradient);}.cls-2{fill:#fff;}</style><linearGradient id="linear-gradient" x1="2.06" y1="2.06" x2="74.82" y2="74.82" gradientUnits="userSpaceOnUse"><stop offset="0" stop-color="#ff512f"/><stop offset="1" stop-color="#dd2476"/></linearGradient></defs><g id="Capa_2" data-name="Capa 2"><g id="Capa_1-2" data-name="Capa 1"><path class="cls-1" d="M69.9,76.9H7a7,7,0,0,1-7-7V7A7,7,0,0,1,7,0H69.9a7,7,0,0,1,7,7V69.8A7.11,7.11,0,0,1,69.9,76.9Z"/><path class="cls-2" d="M10.42,52.21a9.74,9.74,0,0,1,4.3,1V57a8.35,8.35,0,0,0-4.14-1.29,3.75,3.75,0,1,0-.08,7.49,4.26,4.26,0,0,0,.85-.09V61.64H9.44v-2.9h5.74v6.83a11.25,11.25,0,0,1-4.68,1c-4.74,0-7.9-3-7.9-7.1S5.89,52.21,10.42,52.21Z"/><path class="cls-2" d="M17.28,52.42h4.88a8.78,8.78,0,0,1,3.91.69,4.05,4.05,0,0,1-.31,7.4l3.69,5.85H25l-3.1-5.29h-.62v5.29h-4Zm4.95,5.93a3.11,3.11,0,0,0,1.56-.29,1.16,1.16,0,0,0,.56-1.1,1.18,1.18,0,0,0-.67-1.15,4,4,0,0,0-1.7-.23h-.73v2.77Z"/><path class="cls-2" d="M47.76,55.77H43.34V52.42H56.16v3.35H51.73V66.36h-4Z"/><path class="cls-2" d="M57.38,52.42h4V66.36h-4Z"/><path class="cls-2" d="M63.61,61.89a10.51,10.51,0,0,0,4.58,1.39c.81,0,1.38-.29,1.38-1,0-1-1.11-1-2.88-1.62-2.12-.73-3.59-1.77-3.59-4,0-2.72,2.1-4.43,5.22-4.43a10.87,10.87,0,0,1,4.55,1v3.66a10.48,10.48,0,0,0-4.51-1.39c-.73,0-1.23.23-1.23.85,0,.9,1.08.9,2.77,1.5,2.18.77,3.7,1.85,3.7,4.2,0,2.81-2.22,4.52-5.45,4.52a11.42,11.42,0,0,1-4.54-1Z"/><path class="cls-2" d="M2.51,40.7H5.23a7.11,7.11,0,0,1,4.44,1.11,4.43,4.43,0,0,1,1.61,3.63A4.56,4.56,0,0,1,10,48.87c-1,.81-2.42,1.21-4.64,1.21H2.51Zm2.82,7.16c1.72,0,2.42-.3,2.82-.8a2.76,2.76,0,0,0,.51-1.62,2.27,2.27,0,0,0-.81-1.91A4.61,4.61,0,0,0,5.33,43h-.1l.1,4.84Z"/><path class="cls-2" d="M12.39,40.7h6.05V43H15v1.21h2.92v2.12H15v1.51h3.63v2.22H12.39Z"/><path class="cls-2" d="M19.85,47.16a7.55,7.55,0,0,0,3.13.9c.5,0,.9-.2.9-.7,0-.71-.7-.71-1.91-1.11-1.41-.5-2.42-1.21-2.42-2.72,0-1.82,1.41-3,3.53-3a6,6,0,0,1,3,.71v2.42a7.08,7.08,0,0,0-3-.91c-.51,0-.81.2-.81.61,0,.6.71.6,1.81,1,1.52.51,2.53,1.21,2.53,2.83,0,1.91-1.52,3-3.63,3a8.18,8.18,0,0,1-3-.6V47.16Z"/><path class="cls-2" d="M27.61,40.7h3a5.56,5.56,0,0,1,2.82.51,2.69,2.69,0,0,1,1.61,2.62,2.86,2.86,0,0,1-1.41,2.52,6.17,6.17,0,0,1-3,.61h-.4v3.12H27.61Zm3.13,4.24a2.93,2.93,0,0,0,1.21-.2,1,1,0,0,0,.5-.91,1.07,1.07,0,0,0-.5-.91,2.93,2.93,0,0,0-1.21-.2h-.4v2.12h.4Z"/><path class="cls-2" d="M38.6,40.7h2.62l3.84,9.38H42.13l-.7-1.91H38.2l-.71,1.91H34.77Zm1.21,2.93c-.2.6-.4,1.11-.6,1.71l-.3.91h1.81l-.3-.91c-.2-.6-.41-1.21-.61-1.71Z"/><path class="cls-2" d="M50.1,40.6a7.45,7.45,0,0,1,2.62.51v2.62a5.36,5.36,0,0,0-2.52-.81,2.38,2.38,0,0,0-2.62,2.42,2.54,2.54,0,0,0,2.72,2.52,5,5,0,0,0,2.62-.8v2.62a6.35,6.35,0,0,1-2.72.6c-3.13,0-5.24-2.11-5.24-4.84S47.07,40.6,50.1,40.6Z"/><path class="cls-2" d="M54,40.7h2.72v3.43h3.33V40.7H62.7v9.38H60.08V46.35H56.75v3.73H54.13V40.7Z"/><path class="cls-2" d="M68.85,40.6a4.84,4.84,0,1,1-5,4.84A5,5,0,0,1,68.85,40.6Zm0,7.26a2.42,2.42,0,1,0-2.32-2.42A2.37,2.37,0,0,0,68.85,47.86Z"/><path class="cls-2" d="M35.37,52.39h3.94L45,66.45H40.65l-1-2.88H34.85l-1,2.88H29.68Zm1.9,4.27c-.27.89-.54,1.71-.87,2.62l-.49,1.34h2.72l-.46-1.34c-.33-1-.59-1.75-.86-2.62Z"/><path class="cls-2" d="M25.1,23.05H16.43A1.39,1.39,0,1,1,16,20.3a1.77,1.77,0,0,1,.46,0H25.1a1.39,1.39,0,1,1,.45,2.75A1.14,1.14,0,0,1,25.1,23.05Z"/><path class="cls-2" d="M25.1,28.68H11.21a1.39,1.39,0,0,1-1.15-1.6,1.4,1.4,0,0,1,1.15-1.15H25.1a1.4,1.4,0,0,1,1.24,1.53,1.38,1.38,0,0,1-1.1,1.22Z"/><path class="cls-2" d="M28.92,30.43a.55.55,0,0,0-.54.55v1.66a.55.55,0,0,0,.54.55h6.13a4.52,4.52,0,0,1,1.5-2.76Z"/><path class="cls-2" d="M57.27,30.43h0a3.41,3.41,0,1,0,3.4,3.42A3.41,3.41,0,0,0,57.26,30.43Zm0,5.1h0A1.7,1.7,0,1,1,59,33.84,1.69,1.69,0,0,1,57.26,35.53Z"/><path class="cls-2" d="M66.12,30.43H64.79V23A4.29,4.29,0,0,0,64,20.54l-3.32-4.93a4.39,4.39,0,0,0-3.62-1.94H51.94a1.1,1.1,0,0,0-1.1,1.1V30.43H42.4a4.48,4.48,0,0,1,1.51,2.75h8.91a4.48,4.48,0,0,1,8.87,0h4.43a.54.54,0,0,0,.54-.53h0V31A.55.55,0,0,0,66.12,30.43Zm-5.11-9h0a.5.5,0,0,1-.31.1v0H53.9a.54.54,0,0,1-.54-.54V17.22a.55.55,0,0,1,.54-.54H58a.56.56,0,0,1,.46.19l2.66,3.78A.55.55,0,0,1,61,21.41Z"/><path class="cls-2" d="M39.5,30.43h0a3.41,3.41,0,1,0,3.43,3.42A3.42,3.42,0,0,0,39.47,30.43Zm0,5.1h0a1.7,1.7,0,1,1,1.7-1.69A1.69,1.69,0,0,1,39.47,35.53Z"/><path class="cls-2" d="M29.61,28.8H48.74a.55.55,0,0,0,.55-.54h0V12a1.62,1.62,0,0,0-1.62-1.63H28.54a.54.54,0,0,0-.54.54h0V27.17A1.62,1.62,0,0,0,29.61,28.8Z"/></g></g></svg>