<svg xmlns="http://www.w3.org/2000/svg" width="25.765" height="33" viewBox="0 0 25.765 33">
    <defs>
        <style>
            .cls-1{fill:#fff}
        </style>
    </defs>
    <path id="shopping-bag-icon" d="M428.249-443.83h-2.769c-.467-4.713-2.068-8.388-6.965-8.388-4.809 0-6.408 3.927-6.9 8.388h-3.368a.865.865 0 0 0-.863.8l-1.73 22.881a.866.866 0 0 0 .228.654.864.864 0 0 0 .634.277h24.035a.866.866 0 0 0 .642-.285.862.862 0 0 0 .219-.667l-2.307-22.881a.865.865 0 0 0-.856-.779zm-9.734-6.658c3.151 0 4.716 1.881 5.219 6.658h-10.372c.529-4.67 2.127-6.657 5.153-6.657z" class="cls-1" transform="translate(-405.656 452.218)"/>
</svg>
