<svg xmlns="http://www.w3.org/2000/svg" id="tracking-icon" width="33.925" height="30" viewBox="0 0 33.925 30">
    <defs>
        <style>
            .cls-1{fill:#fff}
        </style>
    </defs>
    <path id="Trazado_15" d="M64.5 46.824h-1.159v-6.57a3.851 3.851 0 0 0-.671-2.171l-2.954-4.368A3.882 3.882 0 0 0 56.5 32h-4.567a.968.968 0 0 0-.968.968v13.853H43.48a3.968 3.968 0 0 1 1.343 2.445h7.891a3.974 3.974 0 0 1 7.865 0H64.5a.483.483 0 0 0 .483-.483V47.31a.486.486 0 0 0-.48-.486zm-4.545-7.968a.486.486 0 0 1-.286.086H53.65a.483.483 0 0 1-.483-.48v-3.34a.483.483 0 0 1 .483-.483h3.674a.486.486 0 0 1 .4.2l2.363 3.351a.486.486 0 0 1-.126.663z" class="cls-1" data-name="Trazado 15" transform="translate(-31.058 -22.858)"/>
    <path id="Trazado_16" d="M82.043 83.89a3.017 3.017 0 1 0 3.011 3.023 3.014 3.014 0 0 0-3.011-3.023zm0 4.522a1.506 1.506 0 1 1 1.506-1.506 1.506 1.506 0 0 1-1.506 1.506z" class="cls-1" data-name="Trazado 16" transform="translate(-56.445 -59.924)"/>
    <path id="Trazado_17" d="M.483 83.89a.489.489 0 0 0-.483.486v1.471a.483.483 0 0 0 .483.483h5.428a4 4 0 0 1 1.334-2.44z" class="cls-1" data-name="Trazado 17" transform="translate(0 -59.924)"/>
    <path id="Trazado_18" d="M26.843 83.89a3.017 3.017 0 1 0 3.011 3.023 3.014 3.014 0 0 0-3.011-3.023zm0 4.522a1.506 1.506 0 1 1 1.506-1.506 1.506 1.506 0 0 1-1.506 1.506z" class="cls-1" data-name="Trazado 18" transform="translate(-17.015 -59.924)"/>
    <path id="Trazado_19" d="M20.244 6.262a.589.589 0 0 0-.589-.531h-1.891C17.447 2.511 16.353 0 13.016 0 9.722 0 8.631 2.683 8.3 5.731H6.011a.589.589 0 0 0-.6.554L4.226 21.907a.591.591 0 0 0 .589.637h16.418a.594.594 0 0 0 .589-.651zm-7.228-5.08c2.151 0 3.223 1.286 3.565 4.548H9.488c.36-3.19 1.451-4.547 3.528-4.547zm-.109 17.61a4.325 4.325 0 1 0-.009 0z" class="cls-1" data-name="Trazado 19" transform="translate(-3.017)"/>
    <path id="Trazado_20" d="M34.4 42.46a.511.511 0 0 1-.146-.02l-1.806-.486a.554.554 0 0 1-.411-.543v-2.774a.571.571 0 1 1 1.117-.069v2.423l1.391.377a.557.557 0 0 1-.146 1.094z" class="cls-1" data-name="Trazado 20" transform="translate(-22.872 -27.084)"/>
</svg>
