<svg xmlns="http://www.w3.org/2000/svg" width="22.782" height="28" viewBox="0 0 22.782 28">
    <defs>
        <style>
            .cls-1{fill:#fff}
        </style>
    </defs>
    <path id="user-icon" d="M22.541 21.663a1.561 1.561 0 0 0-.6-.812 5.81 5.81 0 0 0-1.423-.665c-.236-.079-.458-.153-.66-.236a19.566 19.566 0 0 1-2.767-1.369 3.131 3.131 0 0 1-1.31-1.177v-.054a1.133 1.133 0 0 1-.074-.281v-.108a3.515 3.515 0 0 1 0-.739 9.87 9.87 0 0 0 .394-.586 11.723 11.723 0 0 0 1.231-2.4 2.691 2.691 0 0 0 1.231-1.969 2.7 2.7 0 0 0-.3-2.26c.044-.423.079-.832.094-1.236A7.816 7.816 0 0 0 16.883 2.1 6.991 6.991 0 0 0 11.394 0a6.806 6.806 0 0 0-5.45 2.112 7.74 7.74 0 0 0-1.473 5.672c.039.34.049.812.094 1.236a2.677 2.677 0 0 0-.3 2.26A2.807 2.807 0 0 0 5.5 13.249a11.467 11.467 0 0 0 1.216 2.378c.148.236.281.438.409.611a3.54 3.54 0 0 1 0 .734v.108a1.063 1.063 0 0 1-.074.286v.054a3.131 3.131 0 0 1-1.309 1.18 19.566 19.566 0 0 1-2.787 1.369c-.2.084-.423.158-.66.236a5.81 5.81 0 0 0-1.443.625 1.566 1.566 0 0 0-.606.837c-.246.655-.34.985-.128 1.221a14.51 14.51 0 0 0 5.125 3.83l.162.064c.286.123.586.241.9.35l.182.064.084.03c.241.079.492.153.734.222h.034l.158.039a13.735 13.735 0 0 0 1.364.3 14.948 14.948 0 0 0 5.071 0 13.735 13.735 0 0 0 1.364-.3l.158-.039h.034c.246-.069.492-.143.734-.226l.084-.025.182-.064c.31-.108.611-.226.926-.359l.133-.054a14.465 14.465 0 0 0 5.106-3.835c.227-.237.139-.572-.112-1.222z" class="cls-1" transform="translate(-.001)"/>
</svg>
